<svg width="27" height="24" viewBox="0 0 27 24" fill="none" xmlns="http://www.w3.org/2000/svg">
<path d="M26.4659 1.32167C26.3495 1.15685 26.1886 1.02817 26.0019 0.950608C25.8151 0.873048 25.6102 0.849808 25.411 0.883598L1.49476 4.99294L0.972366 6.90799L8.91741 12.8813L12.2494 23.1802L14.1768 23.706L26.5163 2.45664C26.6169 2.28248 26.6655 2.08333 26.6566 1.88239C26.6477 1.68145 26.5815 1.487 26.4659 1.32167ZM13.4851 21.5548L10.6211 12.7023L20.4266 6.53513L19.5264 5.12335L9.64426 11.3385L3.09355 6.41347L24.4037 2.75165L13.4851 21.5548Z" fill="black"/>
<path d="M26.4659 1.32167C26.3495 1.15685 26.1886 1.02817 26.0019 0.950608C25.8151 0.873048 25.6102 0.849808 25.411 0.883598L1.49476 4.99294L0.972366 6.90799L8.91741 12.8813L12.2494 23.1802L14.1768 23.706L26.5163 2.45664C26.6169 2.28248 26.6655 2.08333 26.6566 1.88239C26.6477 1.68145 26.5815 1.487 26.4659 1.32167ZM13.4851 21.5548L10.6211 12.7023L20.4266 6.53513L19.5264 5.12335L9.64426 11.3385L3.09355 6.41347L24.4037 2.75165L13.4851 21.5548Z" fill="white"/>
</svg>
