<svg width="14" height="12" viewBox="0 0 14 12" fill="none" xmlns="http://www.w3.org/2000/svg">
<path d="M8.31349 1.54511C7.99807 1.19164 7.99807 0.618564 8.31349 0.265099C8.62891 -0.0883663 9.14032 -0.0883663 9.45574 0.265099L13.7634 5.09232C14.0789 5.44579 14.0789 6.01887 13.7634 6.37233L9.45574 11.1996C9.14032 11.553 8.62891 11.553 8.31349 11.1996C7.99807 10.8461 7.99807 10.273 8.31349 9.91955L11.2424 6.63743H0.807692C0.361617 6.63743 0 6.2322 0 5.73233C0 5.23245 0.361617 4.82722 0.807692 4.82722H11.2424L8.31349 1.54511Z" fill="white"/>
<path d="M8.31349 1.54511C7.99807 1.19164 7.99807 0.618564 8.31349 0.265099C8.62891 -0.0883663 9.14032 -0.0883663 9.45574 0.265099L13.7634 5.09232C14.0789 5.44579 14.0789 6.01887 13.7634 6.37233L9.45574 11.1996C9.14032 11.553 8.62891 11.553 8.31349 11.1996C7.99807 10.8461 7.99807 10.273 8.31349 9.91955L11.2424 6.63743H0.807692C0.361617 6.63743 0 6.2322 0 5.73233C0 5.23245 0.361617 4.82722 0.807692 4.82722H11.2424L8.31349 1.54511Z" fill="#70B63A"/>
</svg>
