<svg width="55" height="55" viewBox="0 0 55 55" fill="none" xmlns="http://www.w3.org/2000/svg">
<path d="M11.6448 10.3472C18.815 17.9794 23.2024 28.2299 23.2977 39.5093C23.3496 45.6609 21.5056 48.6155 20.1218 50.613C17.642 54.1932 13.2044 53.8402 10.5254 54.998C28.9719 53.5173 25.6236 33.4731 24.5661 29.1986C21.765 17.8656 11.6448 10.3472 11.6448 10.3472Z" fill="#00833E"/>
<path d="M26.1541 25.6604C29.7098 26.5186 43.3607 30.2578 43.4661 36.6269C43.5615 42.4473 35.1949 48.4601 17.498 52.5489C38.7055 50.5279 53.6432 42.8722 54.4798 38.3585C56.451 27.7282 26.1541 25.6587 26.1541 25.6587V25.6604Z" fill="#00833E"/>
<path d="M26.1541 25.6606C29.7098 26.5189 50.9441 27.9694 50.6563 34.6079C50.2882 43.0616 35.1949 48.462 17.498 52.5508C38.7055 50.5298 53.6432 42.8742 54.4798 38.3604C56.451 27.7301 26.1541 25.6606 26.1541 25.6606Z" fill="#00833E"/>
<path d="M26.1541 25.6606C29.7098 26.5189 50.7283 28.0597 50.4405 34.6982C50.0723 43.1519 35.1966 48.462 17.498 52.5508C30.6971 49.5311 38.5315 46.9781 43.779 43.6036C47.0972 41.4705 50.1091 39.2471 50.5961 35.6301C50.7902 34.1846 50.5375 33.1005 49.6005 32.0917C47.9338 30.2982 44.5772 29.0016 41.085 28.1584C34.1726 26.4888 26.1541 25.6606 26.1541 25.6606Z" fill="#00833E"/>
<path d="M12.9746 13.3873C20.9496 9.56952 41.0577 3.14351 45.7865 10.5934C50.5153 18.0433 39.8061 30.3365 32.1156 36.2974C35.248 31.6415 39.6237 24.1548 37.6408 17.6719C33.8809 5.37865 12.9763 13.3873 12.9763 13.3873H12.9746Z" fill="#00833E"/>
<path d="M12.9746 13.3873C20.9496 9.56952 41.0577 3.14351 45.7865 10.5934C50.5153 18.0433 39.8061 30.3365 32.1156 36.2974C35.248 31.6415 44.7675 22.0468 42.8816 13.7604C39.9416 0.836442 12.9763 13.3873 12.9763 13.3873H12.9746Z" fill="#00833E"/>
<path d="M12.9746 13.3872C20.9496 9.56942 37.5973 4.09702 42.1253 11.3378C43.889 14.1585 43.5309 18.0214 42.0818 21.963C40.1391 27.2497 35.0974 32.5933 32.1139 36.2957C35.2463 31.6397 44.7658 22.045 42.88 13.7586C39.94 0.834665 12.9746 13.3855 12.9746 13.3855V13.3872Z" fill="#00833E"/>
<path d="M11.5679 10.3472C18.246 17.9794 20.751 30.3948 19.8122 38.1408C18.7079 47.2503 14.9429 52.9485 10.5254 54.9996C27.7086 53.519 24.5895 33.4748 23.604 29.2002C20.9953 17.8673 11.5679 10.3488 11.5679 10.3488V10.3472Z" fill="#274299"/>
<path d="M11.5679 10.3472C18.246 17.9794 20.751 30.3948 19.8122 38.1408C18.7079 47.2503 14.9429 52.9485 10.5254 54.9996C27.7086 53.519 24.5895 33.4748 23.604 29.2002C20.9953 17.8673 11.5679 10.3488 11.5679 10.3488V10.3472Z" fill="#00833E"/>
<path d="M14.3793 7.15711C8.15127 7.67072 7.73461 8.0873 7.22091 14.3142C6.7072 8.0873 6.29055 7.67072 0.0625 7.15711C6.29055 6.6435 6.7072 6.22692 7.22091 0C7.73461 6.22692 8.15127 6.6435 14.3793 7.15711Z" fill="#00833E"/>
</svg>
