<svg width="26" height="26" viewBox="0 0 26 26" fill="none" xmlns="http://www.w3.org/2000/svg">
<circle cx="13" cy="13" r="12.5" fill="white" stroke="#00833E"/>
<path d="M10.7245 17.0084C10.8184 17.1034 10.9464 17.1568 11.08 17.1568C11.2136 17.1568 11.3416 17.1034 11.4355 17.0084L19.7167 8.63589L19.3633 8.28638L19.7167 8.63589C19.8959 8.4547 20.1841 8.4547 20.3633 8.63589L20.6485 8.35385L20.3633 8.63589C20.5456 8.82012 20.5456 9.12106 20.3633 9.30529L11.4033 18.3641C11.2241 18.5453 10.9359 18.5453 10.7567 18.3641L5.63666 13.1876C5.45445 13.0034 5.45444 12.7025 5.63666 12.5182C5.81587 12.3371 6.10413 12.3371 6.28334 12.5182L10.7245 17.0084Z" fill="#00833E" stroke="#00833E" stroke-linecap="round" stroke-linejoin="round"/>
</svg>
