<svg width="32" height="32" viewBox="0 0 32 32" fill="none" xmlns="http://www.w3.org/2000/svg">
<path d="M6.79779 6.02026C11.007 10.4609 13.5826 16.4248 13.6386 22.9874C13.6691 26.5665 12.5866 28.2855 11.7742 29.4477C10.3184 31.5308 7.71331 31.3254 6.14062 31.999C16.9697 31.1375 15.0041 19.4754 14.3832 16.9884C12.7388 10.3947 6.79779 6.02026 6.79779 6.02026Z" fill="#00833E"/>
<path d="M15.3159 14.9297C17.4033 15.429 25.417 17.6045 25.4789 21.3102C25.5349 24.6966 20.6233 28.195 10.2344 30.5739C22.6842 29.3981 31.4534 24.9439 31.9445 22.3177C33.1017 16.1328 15.3159 14.9287 15.3159 14.9287V14.9297Z" fill="#00833E"/>
<path d="M15.3159 14.9299C17.4033 15.4293 29.8689 16.2732 29.6999 20.1356C29.4838 25.0541 20.6233 28.1962 10.2344 30.5752C22.6842 29.3993 31.4534 24.9451 31.9445 22.3189C33.1017 16.134 15.3159 14.9299 15.3159 14.9299Z" fill="#00833E"/>
<path d="M15.3159 14.9299C17.4033 15.4293 29.7422 16.3258 29.5732 20.1882C29.3571 25.1067 20.6243 28.1962 10.2344 30.5752C17.9829 28.8182 22.5821 27.3328 25.6626 25.3695C27.6106 24.1284 29.3787 22.8348 29.6646 20.7303C29.7785 19.8893 29.6302 19.2586 29.0801 18.6716C28.1017 17.6282 26.1312 16.8738 24.0811 16.3832C20.0232 15.4118 15.3159 14.9299 15.3159 14.9299Z" fill="#00833E"/>
<path d="M7.57812 7.78926C12.2598 5.56799 24.0643 1.82921 26.8404 6.1637C29.6164 10.4982 23.3296 17.6506 18.8148 21.1188C20.6537 18.4099 23.2225 14.054 22.0584 10.2821C19.8512 3.12966 7.57911 7.78926 7.57911 7.78926H7.57812Z" fill="#00833E"/>
<path d="M7.57812 7.78926C12.2598 5.56799 24.0643 1.82921 26.8404 6.1637C29.6164 10.4982 23.3296 17.6506 18.8148 21.1188C20.6537 18.4099 26.2421 12.8275 25.1351 8.00632C23.4091 0.486916 7.57911 7.78926 7.57911 7.78926H7.57812Z" fill="#00833E"/>
<path d="M7.57812 7.78901C12.2598 5.56775 22.0329 2.3838 24.691 6.59662C25.7264 8.23775 25.5162 10.4853 24.6655 12.7786C23.525 15.8545 20.5653 18.9635 18.8139 21.1176C20.6527 18.4087 26.2411 12.8263 25.1341 8.00511C23.4081 0.485699 7.57812 7.78804 7.57812 7.78804V7.78901Z" fill="#00833E"/>
<path d="M6.75261 6.02026C10.673 10.4609 12.1436 17.6844 11.5925 22.1911C10.9441 27.4912 8.73394 30.8066 6.14062 31.9999C16.228 31.1385 14.397 19.4764 13.8184 16.9894C12.287 10.3956 6.75261 6.02124 6.75261 6.02124V6.02026Z" fill="#274299"/>
<path d="M6.75261 6.02026C10.673 10.4609 12.1436 17.6844 11.5925 22.1911C10.9441 27.4912 8.73394 30.8066 6.14062 31.9999C16.228 31.1385 14.397 19.4764 13.8184 16.9894C12.287 10.3956 6.75261 6.02124 6.75261 6.02124V6.02026Z" fill="#00833E"/>
<path d="M8.40469 4.16415C4.74851 4.46298 4.50392 4.70535 4.20235 8.32829C3.90078 4.70535 3.65618 4.46298 0 4.16415C3.65618 3.86532 3.90078 3.62294 4.20235 0C4.50392 3.62294 4.74851 3.86532 8.40469 4.16415Z" fill="#00833E"/>
</svg>
