<svg width="97" height="81" viewBox="0 0 97 81" fill="none" xmlns="http://www.w3.org/2000/svg">
<path d="M8.08333 0V52.5417H88.9167V0H8.08333ZM80.8333 44.4583H16.1667V8.08333H80.8333V44.4583ZM39.4952 68.7083L41.3786 64.6667H55.6214L57.5048 68.7083H39.4952ZM97 80.8333H0L8.08333 56.5833H16.587L11.2116 72.75H85.7803L80.5383 56.5833H88.9167L97 80.8333Z" fill="#00833E"/>
<path d="M48.5006 13.917C55.3986 13.917 61 19.5184 61 26.4164C61 33.3156 55.3986 38.917 48.5006 38.917C41.6014 38.917 36 33.3156 36 26.4164C36 19.5184 41.6014 13.917 48.5006 13.917ZM42.1878 26.9027L47.0028 31.1913C47.1803 31.3514 47.4041 31.4289 47.6267 31.4289C47.8792 31.4289 48.133 31.3276 48.3168 31.1263L55.7599 22.988C55.9237 22.8092 56.005 22.5842 56.005 22.3604C56.005 21.8477 55.5911 21.4264 55.0698 21.4264C54.8147 21.4264 54.5634 21.5289 54.3771 21.7302L47.5591 29.1846L43.4356 25.5111C43.2556 25.3524 43.0343 25.2736 42.8117 25.2736C42.2928 25.2736 41.8765 25.6924 41.8765 26.2063C41.8765 26.4626 41.9815 26.7177 42.1878 26.9027Z" fill="#00833E"/>
</svg>
