<svg width="84" height="83" viewBox="0 0 84 83" fill="none" xmlns="http://www.w3.org/2000/svg">
<path d="M26.2715 5.1875C26.2715 2.31816 28.5896 0 31.459 0H36.6465C39.5158 0 41.834 2.31816 41.834 5.1875C44.7033 5.1875 47.0215 7.50566 47.0215 10.375V46.6875C47.0215 49.5568 44.7033 51.875 41.834 51.875C41.834 54.7443 39.5158 57.0625 36.6465 57.0625H31.459C28.5896 57.0625 26.2715 54.7443 26.2715 51.875C23.4021 51.875 21.084 49.5568 21.084 46.6875V10.375C21.084 7.50566 23.4021 5.1875 26.2715 5.1875ZM5.52148 72.625H52.209C63.6701 72.625 72.959 63.3361 72.959 51.875C72.959 40.4139 63.6701 31.125 52.209 31.125V20.75C69.3926 20.75 83.334 34.6914 83.334 51.875C83.334 59.8508 80.335 67.1133 75.4068 72.625H78.1465C81.0158 72.625 83.334 74.9432 83.334 77.8125C83.334 80.6818 81.0158 83 78.1465 83H52.209H5.52148C2.65215 83 0.333984 80.6818 0.333984 77.8125C0.333984 74.9432 2.65215 72.625 5.52148 72.625ZM18.4902 62.25H49.6152C51.0418 62.25 52.209 63.4172 52.209 64.8438C52.209 66.2703 51.0418 67.4375 49.6152 67.4375H18.4902C17.0637 67.4375 15.8965 66.2703 15.8965 64.8438C15.8965 63.4172 17.0637 62.25 18.4902 62.25Z" fill="#00833E"/>
</svg>
