<svg width="78" height="85" viewBox="0 0 78 85" fill="none" xmlns="http://www.w3.org/2000/svg">
<path d="M17.7273 42.5H53.1818V46.0417H17.7273V42.5ZM45.4385 31.875H17.7273V35.4167H49.803C48.2075 34.4144 46.7433 33.2279 45.4385 31.875ZM17.7273 24.7917H40.7727C40.2976 23.6583 39.9325 22.4683 39.6417 21.25H17.7273V24.7917ZM63.8182 38.8698V47.9648C63.8182 62.5104 42.5455 56.6667 42.5455 56.6667C42.5455 56.6667 47.9275 77.9167 33.1925 77.9167H7.09091V7.08333H40.7727C41.8789 4.43062 43.4779 2.04 45.4385 0H0V85H36.1246C47.3389 85 70.9091 59.4185 70.9091 50.9504V37.1875C68.7003 38.1083 66.3106 38.6785 63.8182 38.8698ZM78 15.9375C78 24.7385 70.8559 31.875 62.0455 31.875C53.235 31.875 46.0909 24.7385 46.0909 15.9375C46.0909 7.13646 53.235 0 62.0455 0C70.8559 0 78 7.13646 78 15.9375ZM70.356 12.8138L67.8884 10.3488L60.3862 18.0306L56.8691 14.6979L54.4015 17.1665L60.3862 22.9642L70.356 12.8138Z" fill="#00833E"/>
</svg>
