<svg width="55" height="55" viewBox="0 0 55 55" fill="none" xmlns="http://www.w3.org/2000/svg">
<path d="M11.5823 10.3477C18.7525 17.9799 23.1399 28.2304 23.2352 39.5098C23.2871 45.6614 21.4431 48.6159 20.0593 50.6135C17.5795 54.1937 13.1419 53.8407 10.4629 54.9984C28.9094 53.5178 25.5611 33.4736 24.5036 29.1991C21.7025 17.8661 11.5823 10.3477 11.5823 10.3477Z" fill="white"/>
<path d="M26.0916 25.6599C29.6473 26.5181 43.2982 30.2573 43.4036 36.6264C43.499 42.4468 35.1324 48.4596 17.4355 52.5484C38.643 50.5274 53.5807 42.8717 54.4173 38.358C56.3885 27.7277 26.0916 25.6582 26.0916 25.6582V25.6599Z" fill="white"/>
<path d="M26.0916 25.6602C29.6473 26.5184 50.8816 27.9689 50.5938 34.6074C50.2257 43.0611 35.1324 48.4615 17.4355 52.5503C38.643 50.5294 53.5807 42.8737 54.4173 38.3599C56.3885 27.7297 26.0916 25.6602 26.0916 25.6602Z" fill="white"/>
<path d="M26.0916 25.6602C29.6473 26.5184 50.6658 28.0592 50.378 34.6977C50.0098 43.1514 35.1341 48.4615 17.4355 52.5503C30.6346 49.5306 38.469 46.9776 43.7165 43.6031C47.0347 41.47 50.0466 39.2466 50.5336 35.6296C50.7277 34.1841 50.475 33.1 49.538 32.0912C47.8713 30.2977 44.5147 29.0011 41.0225 28.1579C34.1101 26.4883 26.0916 25.6602 26.0916 25.6602Z" fill="white"/>
<path d="M12.9121 13.3873C20.8871 9.56952 40.9952 3.14351 45.724 10.5934C50.4528 18.0433 39.7436 30.3365 32.0531 36.2974C35.1855 31.6415 39.5612 24.1548 37.5783 17.6719C33.8184 5.37865 12.9138 13.3873 12.9138 13.3873H12.9121Z" fill="white"/>
<path d="M12.9121 13.3873C20.8871 9.56952 40.9952 3.14351 45.724 10.5934C50.4528 18.0433 39.7436 30.3365 32.0531 36.2974C35.1855 31.6415 44.705 22.0468 42.8191 13.7604C39.8791 0.836442 12.9138 13.3873 12.9138 13.3873H12.9121Z" fill="white"/>
<path d="M12.9121 13.3882C20.8871 9.57039 37.5348 4.098 42.0628 11.3388C43.8265 14.1594 43.4684 18.0224 42.0193 21.964C40.0766 27.2507 35.0349 32.5943 32.0514 36.2966C35.1838 31.6407 44.7033 22.046 42.8175 13.7596C39.8775 0.835642 12.9121 13.3865 12.9121 13.3865V13.3882Z" fill="white"/>
<path d="M11.5054 10.3477C18.1835 17.9799 20.6885 30.3953 19.7497 38.1413C18.6454 47.2508 14.8804 52.949 10.4629 55.0001C27.6461 53.5195 24.527 33.4753 23.5415 29.2007C20.9328 17.8678 11.5054 10.3493 11.5054 10.3493V10.3477Z" fill="white"/>
<path d="M14.3168 7.15711C8.08877 7.67072 7.67211 8.0873 7.15841 14.3142C6.6447 8.0873 6.22805 7.67072 0 7.15711C6.22805 6.6435 6.6447 6.22692 7.15841 0C7.67211 6.22692 8.08877 6.6435 14.3168 7.15711Z" fill="white"/>
</svg>
