<svg width="230" height="57" viewBox="0 0 230 57" fill="none" xmlns="http://www.w3.org/2000/svg">
<path d="M72.3855 45.888C72.2655 46.044 72.0375 46.332 71.9295 46.5C71.3655 47.436 70.2255 48.96 69.0375 49.8L67.7895 48.804C68.7615 48.216 69.6975 47.16 70.0095 46.572C69.2775 46.572 64.5015 46.572 63.7455 46.572C63.2535 46.572 62.8455 46.596 62.2815 46.656V44.976C62.7495 45.048 63.2535 45.108 63.7455 45.108C64.5015 45.108 69.5895 45.108 70.2135 45.108C70.5495 45.108 71.2095 45.06 71.4375 45L72.3855 45.888ZM67.5015 47.496C67.5015 50.472 67.4295 52.92 64.1655 54.684L62.7615 53.544C63.1575 53.412 63.5895 53.208 64.0335 52.872C65.5455 51.816 65.8335 50.556 65.8335 48.588C65.8335 48.204 65.8215 47.892 65.7615 47.496H67.5015ZM82.8735 45.876C82.7775 46.008 82.5615 46.368 82.4535 46.62C81.9615 47.76 81.0735 49.392 80.0415 50.592C78.6975 52.14 76.8855 53.628 75.0255 54.504L73.7775 53.208C75.7215 52.488 77.5695 51.024 78.6975 49.776C79.4895 48.876 80.2215 47.688 80.4975 46.836C79.9935 46.836 76.9335 46.836 76.4175 46.836C75.9255 46.836 75.2655 46.896 75.0015 46.92V45.204C75.3255 45.252 76.0695 45.288 76.4175 45.288C77.0535 45.288 80.1255 45.288 80.6535 45.288C81.1815 45.288 81.6495 45.228 81.9015 45.144L82.8735 45.876ZM80.1975 49.596C81.4335 50.604 83.1375 52.392 83.9175 53.352L82.5495 54.54C81.6615 53.304 80.3535 51.876 79.0695 50.712L80.1975 49.596ZM92.4697 45.684C92.8177 46.188 93.3337 47.052 93.6097 47.604L92.5297 48.072C92.1817 47.316 91.8697 46.74 91.4257 46.116L92.4697 45.684ZM94.0777 45.024C94.4377 45.504 94.9777 46.356 95.2537 46.896L94.1977 47.4C93.8137 46.644 93.4897 46.104 93.0457 45.504L94.0777 45.024ZM84.3937 50.592C84.7417 50.292 85.0057 50.04 85.3777 49.668C85.9177 49.128 86.8537 47.952 87.6817 46.968C88.4017 46.116 89.1097 45.984 90.0337 46.86C90.8497 47.628 91.7617 48.576 92.4817 49.356C93.2857 50.22 94.5217 51.54 95.4457 52.524L94.1137 53.952C93.3097 52.956 92.3017 51.708 91.5937 50.88C90.8857 50.052 89.8297 48.888 89.3977 48.444C89.0017 48.06 88.7497 48.084 88.4137 48.516C87.9337 49.128 87.0937 50.304 86.6017 50.964C86.3257 51.336 86.0497 51.768 85.8337 52.08L84.3937 50.592ZM106.144 45.876C106.048 46.008 105.832 46.368 105.724 46.62C105.232 47.76 104.344 49.392 103.312 50.592C101.968 52.14 100.156 53.628 98.2961 54.504L97.0481 53.208C98.9921 52.488 100.84 51.024 101.968 49.776C102.76 48.876 103.492 47.688 103.768 46.836C103.264 46.836 100.204 46.836 99.6881 46.836C99.1961 46.836 98.5361 46.896 98.2721 46.92V45.204C98.5961 45.252 99.3401 45.288 99.6881 45.288C100.324 45.288 103.396 45.288 103.924 45.288C104.452 45.288 104.92 45.228 105.172 45.144L106.144 45.876ZM103.468 49.596C104.704 50.604 106.408 52.392 107.188 53.352L105.82 54.54C104.932 53.304 103.624 51.876 102.34 50.712L103.468 49.596ZM111.844 52.86C111.844 51.936 111.844 46.968 111.844 45.96C111.844 45.528 111.808 44.94 111.724 44.508H113.596C113.548 44.94 113.488 45.456 113.488 45.96C113.488 47.28 113.5 51.972 113.5 52.86C113.5 53.196 113.548 54.036 113.608 54.528H111.724C111.808 54.06 111.844 53.328 111.844 52.86ZM113.14 47.616C114.736 48.06 117.328 49.008 118.504 49.584L117.832 51.252C116.464 50.544 114.448 49.776 113.14 49.344V47.616ZM122.356 48.216H128.848V49.62H122.356V48.216ZM128.38 48.216H129.892C129.892 48.216 129.88 48.66 129.868 48.84C129.736 52.488 129.592 53.916 129.172 54.408C128.872 54.816 128.536 54.924 128.08 54.996C127.66 55.056 126.964 55.044 126.256 55.02C126.232 54.6 126.04 53.976 125.776 53.568C126.448 53.628 127.072 53.64 127.372 53.64C127.588 53.64 127.72 53.604 127.852 53.472C128.14 53.16 128.272 51.816 128.38 48.48V48.216ZM123.712 43.968L125.272 44.424C124.372 46.512 122.908 48.444 121.396 49.632C121.12 49.32 120.496 48.744 120.148 48.468C121.66 47.472 122.992 45.792 123.712 43.968ZM128.284 43.944C129.04 45.468 130.552 47.22 131.872 48.228C131.476 48.54 130.924 49.128 130.648 49.536C129.292 48.288 127.816 46.344 126.868 44.508L128.284 43.944ZM124.504 48.624H126.064C125.836 51.324 125.32 53.832 121.744 55.164C121.564 54.768 121.144 54.156 120.808 53.844C124.024 52.788 124.312 50.76 124.504 48.624ZM138.412 47.868H143.632V49.224H138.412V47.868ZM137.68 44.652L139.396 45.132C139.384 45.24 139.3 45.312 139.084 45.348V48.168C139.084 50.088 138.868 53.076 137.308 55.068C137.104 54.756 136.552 54.288 136.204 54.12C137.548 52.356 137.68 49.932 137.68 48.144V44.652ZM142.036 43.932L143.248 45.06C141.868 45.648 140.032 46.068 138.448 46.32C138.376 45.984 138.16 45.444 137.98 45.144C139.456 44.856 141.052 44.412 142.036 43.932ZM140.644 48.288H142.072V55.068H140.644V48.288ZM132.496 46.284H136.984V47.652H132.496V46.284ZM134.152 43.812H135.532V55.08H134.152V43.812ZM134.08 47.208L134.932 47.508C134.548 49.44 133.792 51.768 132.868 53.004C132.736 52.608 132.4 52.02 132.184 51.66C133.012 50.616 133.768 48.744 134.08 47.208ZM135.424 48.264C135.736 48.6 136.876 50.076 137.116 50.424L136.312 51.564C135.988 50.844 135.172 49.512 134.764 48.912L135.424 48.264ZM149.908 47.916C150.748 47.916 151.432 48.6 151.432 49.44C151.432 50.292 150.748 50.976 149.908 50.976C149.056 50.976 148.372 50.292 148.372 49.44C148.372 48.6 149.056 47.916 149.908 47.916ZM162.364 46.38H165.364V47.436H162.364V46.38ZM162.304 48.24H165.448V49.296H162.304V48.24ZM163.288 45.6H164.404V48.852H163.288V45.6ZM161.356 44.244H166.324V45.468H161.356V44.244ZM162.952 49.908H165.352V53.1H162.952V52.068H164.32V50.94H162.952V49.908ZM162.388 49.908H163.396V53.52H162.388V49.908ZM165.808 44.244H167.14V53.472C167.14 54.168 167.02 54.576 166.612 54.804C166.216 55.044 165.616 55.068 164.764 55.068C164.716 54.696 164.548 54.036 164.356 53.664C164.86 53.7 165.412 53.688 165.592 53.688C165.76 53.688 165.808 53.64 165.808 53.46V44.244ZM160.66 44.244H161.956V48.744C161.956 50.652 161.824 53.412 160.876 55.14C160.648 54.912 160.06 54.504 159.76 54.36C160.6 52.788 160.66 50.484 160.66 48.744V44.244ZM156.7 47.496H159.892V48.576H156.7V47.496ZM156.772 44.184H159.856V45.276H156.772V44.184ZM156.7 49.128H159.892V50.22H156.7V49.128ZM156.196 45.804H160.192V46.944H156.196V45.804ZM157.36 50.796H159.868V54.42H157.36V53.292H158.716V51.924H157.36V50.796ZM156.664 50.796H157.792V54.924H156.664V50.796ZM168.328 53.604H179.248V54.876H168.328V53.604ZM171.016 50.616H176.524V51.612H171.016V50.616ZM171.016 52.104H176.524V53.1H171.016V52.104ZM170.32 48.972H177.268V54.3H175.792V50.136H171.736V54.348H170.32V48.972ZM168.412 45.156H179.164V46.392H168.412V45.156ZM173.02 43.812H174.448V48.648H173.02V43.812ZM172.36 45.552L173.536 46.008C172.504 47.604 170.788 48.972 168.964 49.668C168.76 49.344 168.364 48.828 168.064 48.564C169.792 48 171.496 46.824 172.36 45.552ZM175.048 45.564C175.936 46.812 177.676 47.94 179.464 48.468C179.152 48.732 178.744 49.272 178.54 49.632C176.692 48.948 174.952 47.592 173.908 46.008L175.048 45.564ZM186.82 45.78C186.652 47.004 186.412 48.408 185.992 49.824C185.272 52.248 184.24 53.736 182.932 53.736C181.588 53.736 180.484 52.26 180.484 50.232C180.484 47.472 182.896 45.096 186.004 45.096C188.968 45.096 190.852 47.16 190.852 49.788C190.852 52.308 189.304 54.096 186.28 54.564L185.368 53.148C185.836 53.088 186.172 53.028 186.496 52.956C188.02 52.584 189.22 51.492 189.22 49.728C189.22 47.844 188.044 46.5 185.968 46.5C183.424 46.5 182.032 48.576 182.032 50.088C182.032 51.3 182.512 51.888 182.968 51.888C183.484 51.888 183.94 51.12 184.444 49.5C184.792 48.372 185.056 46.992 185.176 45.732L186.82 45.78ZM192.196 51.084H203.14V52.284H192.196V51.084ZM192.496 44.616H202.84V45.792H192.496V44.616ZM199.12 50.316H200.536V53.688C200.536 54.372 200.38 54.708 199.876 54.9C199.372 55.08 198.664 55.092 197.692 55.092C197.632 54.708 197.44 54.192 197.26 53.832C197.884 53.868 198.652 53.868 198.856 53.856C199.048 53.844 199.12 53.808 199.12 53.652V50.316ZM196.9 43.812H198.328V49.932H196.9V43.812ZM193.924 52.896L194.992 52.14C195.64 52.584 196.432 53.256 196.792 53.748L195.64 54.6C195.316 54.108 194.548 53.388 193.924 52.896ZM194.704 48.84V49.452H200.608V48.84H194.704ZM194.704 47.316V47.928H200.608V47.316H194.704ZM193.36 46.332H202.024V50.436H193.36V46.332ZM205.264 46.08H208.276V47.1H205.264V46.08ZM210.808 46.08H213.832V47.1H210.808V46.08ZM213.268 44.292H214.72V53.328C214.72 54.168 214.552 54.576 214.024 54.804C213.496 55.044 212.704 55.08 211.54 55.08C211.468 54.672 211.228 53.988 211.024 53.592C211.78 53.652 212.68 53.64 212.932 53.628C213.184 53.628 213.268 53.556 213.268 53.316V44.292ZM205.384 44.292H209.164V48.948H205.384V47.796H207.808V45.456H205.384V44.292ZM214.048 44.292V45.456H211.36V47.82H214.048V48.972H209.992V44.292H214.048ZM204.556 44.292H205.984V55.08H204.556V44.292ZM220.792 43.824H222.268V45.54H220.792V43.824ZM216.46 44.76H226.672V47.472H225.208V46.068H217.864V47.472H216.46V44.76ZM218.284 46.836H224.764V48.06H218.284V46.836ZM219.46 48.972L220.564 48.324C223.396 50.292 223.372 53.676 222.088 54.6C221.632 54.996 221.248 55.104 220.612 55.104C220.312 55.116 219.952 55.104 219.592 55.08C219.568 54.684 219.436 54.108 219.184 53.7C219.628 53.748 220.024 53.76 220.336 53.76C220.636 53.76 220.864 53.724 221.068 53.508C221.752 52.98 221.752 50.604 219.46 48.972ZM221.356 47.148L222.544 47.64C221.272 48.936 219.088 49.86 217.084 50.388C216.952 50.112 216.58 49.536 216.352 49.272C218.26 48.888 220.312 48.144 221.356 47.148ZM220.42 49.536L221.344 50.184C220.348 50.952 218.584 51.84 217.24 52.308C217.084 51.996 216.784 51.504 216.52 51.216C217.828 50.904 219.568 50.184 220.42 49.536ZM221.392 50.676L222.376 51.408C221.092 52.632 218.752 53.904 216.844 54.54C216.676 54.18 216.364 53.664 216.088 53.352C217.984 52.884 220.276 51.756 221.392 50.676ZM223.216 47.352C223.792 49.872 225.028 52.02 227.152 52.968C226.828 53.256 226.372 53.832 226.156 54.228C223.888 53.016 222.688 50.616 222.004 47.592L223.216 47.352ZM225.556 48.132L226.684 49.104C225.856 49.728 224.812 50.4 224.032 50.796L223.108 49.932C223.864 49.5 224.932 48.732 225.556 48.132Z" fill="#00833E"/>
<path d="M72.3855 45.888C72.2655 46.044 72.0375 46.332 71.9295 46.5C71.3655 47.436 70.2255 48.96 69.0375 49.8L67.7895 48.804C68.7615 48.216 69.6975 47.16 70.0095 46.572C69.2775 46.572 64.5015 46.572 63.7455 46.572C63.2535 46.572 62.8455 46.596 62.2815 46.656V44.976C62.7495 45.048 63.2535 45.108 63.7455 45.108C64.5015 45.108 69.5895 45.108 70.2135 45.108C70.5495 45.108 71.2095 45.06 71.4375 45L72.3855 45.888ZM67.5015 47.496C67.5015 50.472 67.4295 52.92 64.1655 54.684L62.7615 53.544C63.1575 53.412 63.5895 53.208 64.0335 52.872C65.5455 51.816 65.8335 50.556 65.8335 48.588C65.8335 48.204 65.8215 47.892 65.7615 47.496H67.5015ZM82.8735 45.876C82.7775 46.008 82.5615 46.368 82.4535 46.62C81.9615 47.76 81.0735 49.392 80.0415 50.592C78.6975 52.14 76.8855 53.628 75.0255 54.504L73.7775 53.208C75.7215 52.488 77.5695 51.024 78.6975 49.776C79.4895 48.876 80.2215 47.688 80.4975 46.836C79.9935 46.836 76.9335 46.836 76.4175 46.836C75.9255 46.836 75.2655 46.896 75.0015 46.92V45.204C75.3255 45.252 76.0695 45.288 76.4175 45.288C77.0535 45.288 80.1255 45.288 80.6535 45.288C81.1815 45.288 81.6495 45.228 81.9015 45.144L82.8735 45.876ZM80.1975 49.596C81.4335 50.604 83.1375 52.392 83.9175 53.352L82.5495 54.54C81.6615 53.304 80.3535 51.876 79.0695 50.712L80.1975 49.596ZM92.4697 45.684C92.8177 46.188 93.3337 47.052 93.6097 47.604L92.5297 48.072C92.1817 47.316 91.8697 46.74 91.4257 46.116L92.4697 45.684ZM94.0777 45.024C94.4377 45.504 94.9777 46.356 95.2537 46.896L94.1977 47.4C93.8137 46.644 93.4897 46.104 93.0457 45.504L94.0777 45.024ZM84.3937 50.592C84.7417 50.292 85.0057 50.04 85.3777 49.668C85.9177 49.128 86.8537 47.952 87.6817 46.968C88.4017 46.116 89.1097 45.984 90.0337 46.86C90.8497 47.628 91.7617 48.576 92.4817 49.356C93.2857 50.22 94.5217 51.54 95.4457 52.524L94.1137 53.952C93.3097 52.956 92.3017 51.708 91.5937 50.88C90.8857 50.052 89.8297 48.888 89.3977 48.444C89.0017 48.06 88.7497 48.084 88.4137 48.516C87.9337 49.128 87.0937 50.304 86.6017 50.964C86.3257 51.336 86.0497 51.768 85.8337 52.08L84.3937 50.592ZM106.144 45.876C106.048 46.008 105.832 46.368 105.724 46.62C105.232 47.76 104.344 49.392 103.312 50.592C101.968 52.14 100.156 53.628 98.2961 54.504L97.0481 53.208C98.9921 52.488 100.84 51.024 101.968 49.776C102.76 48.876 103.492 47.688 103.768 46.836C103.264 46.836 100.204 46.836 99.6881 46.836C99.1961 46.836 98.5361 46.896 98.2721 46.92V45.204C98.5961 45.252 99.3401 45.288 99.6881 45.288C100.324 45.288 103.396 45.288 103.924 45.288C104.452 45.288 104.92 45.228 105.172 45.144L106.144 45.876ZM103.468 49.596C104.704 50.604 106.408 52.392 107.188 53.352L105.82 54.54C104.932 53.304 103.624 51.876 102.34 50.712L103.468 49.596ZM111.844 52.86C111.844 51.936 111.844 46.968 111.844 45.96C111.844 45.528 111.808 44.94 111.724 44.508H113.596C113.548 44.94 113.488 45.456 113.488 45.96C113.488 47.28 113.5 51.972 113.5 52.86C113.5 53.196 113.548 54.036 113.608 54.528H111.724C111.808 54.06 111.844 53.328 111.844 52.86ZM113.14 47.616C114.736 48.06 117.328 49.008 118.504 49.584L117.832 51.252C116.464 50.544 114.448 49.776 113.14 49.344V47.616ZM122.356 48.216H128.848V49.62H122.356V48.216ZM128.38 48.216H129.892C129.892 48.216 129.88 48.66 129.868 48.84C129.736 52.488 129.592 53.916 129.172 54.408C128.872 54.816 128.536 54.924 128.08 54.996C127.66 55.056 126.964 55.044 126.256 55.02C126.232 54.6 126.04 53.976 125.776 53.568C126.448 53.628 127.072 53.64 127.372 53.64C127.588 53.64 127.72 53.604 127.852 53.472C128.14 53.16 128.272 51.816 128.38 48.48V48.216ZM123.712 43.968L125.272 44.424C124.372 46.512 122.908 48.444 121.396 49.632C121.12 49.32 120.496 48.744 120.148 48.468C121.66 47.472 122.992 45.792 123.712 43.968ZM128.284 43.944C129.04 45.468 130.552 47.22 131.872 48.228C131.476 48.54 130.924 49.128 130.648 49.536C129.292 48.288 127.816 46.344 126.868 44.508L128.284 43.944ZM124.504 48.624H126.064C125.836 51.324 125.32 53.832 121.744 55.164C121.564 54.768 121.144 54.156 120.808 53.844C124.024 52.788 124.312 50.76 124.504 48.624ZM138.412 47.868H143.632V49.224H138.412V47.868ZM137.68 44.652L139.396 45.132C139.384 45.24 139.3 45.312 139.084 45.348V48.168C139.084 50.088 138.868 53.076 137.308 55.068C137.104 54.756 136.552 54.288 136.204 54.12C137.548 52.356 137.68 49.932 137.68 48.144V44.652ZM142.036 43.932L143.248 45.06C141.868 45.648 140.032 46.068 138.448 46.32C138.376 45.984 138.16 45.444 137.98 45.144C139.456 44.856 141.052 44.412 142.036 43.932ZM140.644 48.288H142.072V55.068H140.644V48.288ZM132.496 46.284H136.984V47.652H132.496V46.284ZM134.152 43.812H135.532V55.08H134.152V43.812ZM134.08 47.208L134.932 47.508C134.548 49.44 133.792 51.768 132.868 53.004C132.736 52.608 132.4 52.02 132.184 51.66C133.012 50.616 133.768 48.744 134.08 47.208ZM135.424 48.264C135.736 48.6 136.876 50.076 137.116 50.424L136.312 51.564C135.988 50.844 135.172 49.512 134.764 48.912L135.424 48.264ZM149.908 47.916C150.748 47.916 151.432 48.6 151.432 49.44C151.432 50.292 150.748 50.976 149.908 50.976C149.056 50.976 148.372 50.292 148.372 49.44C148.372 48.6 149.056 47.916 149.908 47.916ZM162.364 46.38H165.364V47.436H162.364V46.38ZM162.304 48.24H165.448V49.296H162.304V48.24ZM163.288 45.6H164.404V48.852H163.288V45.6ZM161.356 44.244H166.324V45.468H161.356V44.244ZM162.952 49.908H165.352V53.1H162.952V52.068H164.32V50.94H162.952V49.908ZM162.388 49.908H163.396V53.52H162.388V49.908ZM165.808 44.244H167.14V53.472C167.14 54.168 167.02 54.576 166.612 54.804C166.216 55.044 165.616 55.068 164.764 55.068C164.716 54.696 164.548 54.036 164.356 53.664C164.86 53.7 165.412 53.688 165.592 53.688C165.76 53.688 165.808 53.64 165.808 53.46V44.244ZM160.66 44.244H161.956V48.744C161.956 50.652 161.824 53.412 160.876 55.14C160.648 54.912 160.06 54.504 159.76 54.36C160.6 52.788 160.66 50.484 160.66 48.744V44.244ZM156.7 47.496H159.892V48.576H156.7V47.496ZM156.772 44.184H159.856V45.276H156.772V44.184ZM156.7 49.128H159.892V50.22H156.7V49.128ZM156.196 45.804H160.192V46.944H156.196V45.804ZM157.36 50.796H159.868V54.42H157.36V53.292H158.716V51.924H157.36V50.796ZM156.664 50.796H157.792V54.924H156.664V50.796ZM168.328 53.604H179.248V54.876H168.328V53.604ZM171.016 50.616H176.524V51.612H171.016V50.616ZM171.016 52.104H176.524V53.1H171.016V52.104ZM170.32 48.972H177.268V54.3H175.792V50.136H171.736V54.348H170.32V48.972ZM168.412 45.156H179.164V46.392H168.412V45.156ZM173.02 43.812H174.448V48.648H173.02V43.812ZM172.36 45.552L173.536 46.008C172.504 47.604 170.788 48.972 168.964 49.668C168.76 49.344 168.364 48.828 168.064 48.564C169.792 48 171.496 46.824 172.36 45.552ZM175.048 45.564C175.936 46.812 177.676 47.94 179.464 48.468C179.152 48.732 178.744 49.272 178.54 49.632C176.692 48.948 174.952 47.592 173.908 46.008L175.048 45.564ZM186.82 45.78C186.652 47.004 186.412 48.408 185.992 49.824C185.272 52.248 184.24 53.736 182.932 53.736C181.588 53.736 180.484 52.26 180.484 50.232C180.484 47.472 182.896 45.096 186.004 45.096C188.968 45.096 190.852 47.16 190.852 49.788C190.852 52.308 189.304 54.096 186.28 54.564L185.368 53.148C185.836 53.088 186.172 53.028 186.496 52.956C188.02 52.584 189.22 51.492 189.22 49.728C189.22 47.844 188.044 46.5 185.968 46.5C183.424 46.5 182.032 48.576 182.032 50.088C182.032 51.3 182.512 51.888 182.968 51.888C183.484 51.888 183.94 51.12 184.444 49.5C184.792 48.372 185.056 46.992 185.176 45.732L186.82 45.78ZM192.196 51.084H203.14V52.284H192.196V51.084ZM192.496 44.616H202.84V45.792H192.496V44.616ZM199.12 50.316H200.536V53.688C200.536 54.372 200.38 54.708 199.876 54.9C199.372 55.08 198.664 55.092 197.692 55.092C197.632 54.708 197.44 54.192 197.26 53.832C197.884 53.868 198.652 53.868 198.856 53.856C199.048 53.844 199.12 53.808 199.12 53.652V50.316ZM196.9 43.812H198.328V49.932H196.9V43.812ZM193.924 52.896L194.992 52.14C195.64 52.584 196.432 53.256 196.792 53.748L195.64 54.6C195.316 54.108 194.548 53.388 193.924 52.896ZM194.704 48.84V49.452H200.608V48.84H194.704ZM194.704 47.316V47.928H200.608V47.316H194.704ZM193.36 46.332H202.024V50.436H193.36V46.332ZM205.264 46.08H208.276V47.1H205.264V46.08ZM210.808 46.08H213.832V47.1H210.808V46.08ZM213.268 44.292H214.72V53.328C214.72 54.168 214.552 54.576 214.024 54.804C213.496 55.044 212.704 55.08 211.54 55.08C211.468 54.672 211.228 53.988 211.024 53.592C211.78 53.652 212.68 53.64 212.932 53.628C213.184 53.628 213.268 53.556 213.268 53.316V44.292ZM205.384 44.292H209.164V48.948H205.384V47.796H207.808V45.456H205.384V44.292ZM214.048 44.292V45.456H211.36V47.82H214.048V48.972H209.992V44.292H214.048ZM204.556 44.292H205.984V55.08H204.556V44.292ZM220.792 43.824H222.268V45.54H220.792V43.824ZM216.46 44.76H226.672V47.472H225.208V46.068H217.864V47.472H216.46V44.76ZM218.284 46.836H224.764V48.06H218.284V46.836ZM219.46 48.972L220.564 48.324C223.396 50.292 223.372 53.676 222.088 54.6C221.632 54.996 221.248 55.104 220.612 55.104C220.312 55.116 219.952 55.104 219.592 55.08C219.568 54.684 219.436 54.108 219.184 53.7C219.628 53.748 220.024 53.76 220.336 53.76C220.636 53.76 220.864 53.724 221.068 53.508C221.752 52.98 221.752 50.604 219.46 48.972ZM221.356 47.148L222.544 47.64C221.272 48.936 219.088 49.86 217.084 50.388C216.952 50.112 216.58 49.536 216.352 49.272C218.26 48.888 220.312 48.144 221.356 47.148ZM220.42 49.536L221.344 50.184C220.348 50.952 218.584 51.84 217.24 52.308C217.084 51.996 216.784 51.504 216.52 51.216C217.828 50.904 219.568 50.184 220.42 49.536ZM221.392 50.676L222.376 51.408C221.092 52.632 218.752 53.904 216.844 54.54C216.676 54.18 216.364 53.664 216.088 53.352C217.984 52.884 220.276 51.756 221.392 50.676ZM223.216 47.352C223.792 49.872 225.028 52.02 227.152 52.968C226.828 53.256 226.372 53.832 226.156 54.228C223.888 53.016 222.688 50.616 222.004 47.592L223.216 47.352ZM225.556 48.132L226.684 49.104C225.856 49.728 224.812 50.4 224.032 50.796L223.108 49.932C223.864 49.5 224.932 48.732 225.556 48.132Z" fill="white"/>
<path d="M62.6895 36V12.16H71.0095C75.9375 12.16 79.8735 13.504 79.8735 18.08C79.8735 20.192 78.6895 22.496 76.7695 23.232V23.36C79.1695 24 80.9935 25.792 80.9935 28.96C80.9935 33.824 76.8655 36 71.6815 36H62.6895ZM68.4175 21.632H70.7855C73.2175 21.632 74.3055 20.576 74.3055 18.944C74.3055 17.248 73.1855 16.544 70.7855 16.544H68.4175V21.632ZM68.4175 31.616H71.2655C74.0175 31.616 75.4255 30.624 75.4255 28.576C75.4255 26.624 74.0495 25.824 71.2655 25.824H68.4175V31.616ZM85.8995 36V12.16H101.003V16.928H91.6275V21.344H99.5955V26.144H91.6275V31.2H101.355V36H85.8995ZM114.408 36.448C111.304 36.448 107.976 35.296 105.512 33.024L108.776 29.088C110.44 30.528 112.648 31.52 114.536 31.52C116.648 31.52 117.64 30.72 117.64 29.44C117.64 28.064 116.328 27.616 114.28 26.752L111.24 25.472C108.744 24.48 106.408 22.4 106.408 18.944C106.408 14.944 109.992 11.744 115.048 11.744C117.8 11.744 120.712 12.8 122.792 14.88L119.944 18.464C118.376 17.28 116.904 16.64 115.048 16.64C113.288 16.64 112.232 17.344 112.232 18.592C112.232 19.936 113.704 20.448 115.816 21.28L118.792 22.464C121.736 23.648 123.496 25.632 123.496 28.992C123.496 32.96 120.168 36.448 114.408 36.448ZM132.052 36V16.928H125.62V12.16H144.244V16.928H137.78V36H132.052ZM144.178 36L151.57 12.16H158.418L165.81 36H159.794L156.818 24.096C156.178 21.728 155.57 18.88 154.93 16.448H154.802C154.226 18.944 153.586 21.728 152.978 24.096L150.002 36H144.178ZM149.202 30.528V26.112H160.722V30.528H149.202ZM169.271 36V12.16H178.007C183.095 12.16 187.319 13.92 187.319 19.68C187.319 25.28 183.095 27.616 178.007 27.616H174.999V36H169.271ZM174.999 23.104H177.559C180.279 23.104 181.751 21.92 181.751 19.68C181.751 17.44 180.279 16.704 177.559 16.704H174.999V23.104ZM182.135 36L176.983 26.144L180.855 22.4L188.535 36H182.135Z" fill="#00833E"/>
<path d="M62.6895 36V12.16H71.0095C75.9375 12.16 79.8735 13.504 79.8735 18.08C79.8735 20.192 78.6895 22.496 76.7695 23.232V23.36C79.1695 24 80.9935 25.792 80.9935 28.96C80.9935 33.824 76.8655 36 71.6815 36H62.6895ZM68.4175 21.632H70.7855C73.2175 21.632 74.3055 20.576 74.3055 18.944C74.3055 17.248 73.1855 16.544 70.7855 16.544H68.4175V21.632ZM68.4175 31.616H71.2655C74.0175 31.616 75.4255 30.624 75.4255 28.576C75.4255 26.624 74.0495 25.824 71.2655 25.824H68.4175V31.616ZM85.8995 36V12.16H101.003V16.928H91.6275V21.344H99.5955V26.144H91.6275V31.2H101.355V36H85.8995ZM114.408 36.448C111.304 36.448 107.976 35.296 105.512 33.024L108.776 29.088C110.44 30.528 112.648 31.52 114.536 31.52C116.648 31.52 117.64 30.72 117.64 29.44C117.64 28.064 116.328 27.616 114.28 26.752L111.24 25.472C108.744 24.48 106.408 22.4 106.408 18.944C106.408 14.944 109.992 11.744 115.048 11.744C117.8 11.744 120.712 12.8 122.792 14.88L119.944 18.464C118.376 17.28 116.904 16.64 115.048 16.64C113.288 16.64 112.232 17.344 112.232 18.592C112.232 19.936 113.704 20.448 115.816 21.28L118.792 22.464C121.736 23.648 123.496 25.632 123.496 28.992C123.496 32.96 120.168 36.448 114.408 36.448ZM132.052 36V16.928H125.62V12.16H144.244V16.928H137.78V36H132.052ZM144.178 36L151.57 12.16H158.418L165.81 36H159.794L156.818 24.096C156.178 21.728 155.57 18.88 154.93 16.448H154.802C154.226 18.944 153.586 21.728 152.978 24.096L150.002 36H144.178ZM149.202 30.528V26.112H160.722V30.528H149.202ZM169.271 36V12.16H178.007C183.095 12.16 187.319 13.92 187.319 19.68C187.319 25.28 183.095 27.616 178.007 27.616H174.999V36H169.271ZM174.999 23.104H177.559C180.279 23.104 181.751 21.92 181.751 19.68C181.751 17.44 180.279 16.704 177.559 16.704H174.999V23.104ZM182.135 36L176.983 26.144L180.855 22.4L188.535 36H182.135Z" fill="#F5F5F5"/>
<path d="M11.5823 12.3477C18.7525 19.9799 23.1399 30.2304 23.2352 41.5098C23.2871 47.6614 21.4431 50.6159 20.0593 52.6135C17.5795 56.1937 13.1419 55.8407 10.4629 56.9984C28.9094 55.5178 25.5611 35.4736 24.5036 31.1991C21.7025 19.8661 11.5823 12.3477 11.5823 12.3477Z" fill="white"/>
<path d="M26.0916 27.6599C29.6473 28.5181 43.2982 32.2573 43.4036 38.6264C43.499 44.4468 35.1324 50.4596 17.4355 54.5484C38.643 52.5274 53.5807 44.8717 54.4173 40.358C56.3885 29.7277 26.0916 27.6582 26.0916 27.6582V27.6599Z" fill="white"/>
<path d="M26.0916 27.6602C29.6473 28.5184 50.8816 29.9689 50.5938 36.6074C50.2257 45.0611 35.1324 50.4615 17.4355 54.5503C38.643 52.5294 53.5807 44.8737 54.4173 40.3599C56.3885 29.7297 26.0916 27.6602 26.0916 27.6602Z" fill="white"/>
<path d="M26.0916 27.6602C29.6473 28.5184 50.6658 30.0592 50.378 36.6977C50.0098 45.1514 35.1341 50.4615 17.4355 54.5503C30.6346 51.5306 38.469 48.9776 43.7165 45.6031C47.0347 43.47 50.0466 41.2466 50.5336 37.6296C50.7277 36.1841 50.475 35.1 49.538 34.0912C47.8713 32.2977 44.5147 31.0011 41.0225 30.1579C34.1101 28.4883 26.0916 27.6602 26.0916 27.6602Z" fill="white"/>
<path d="M12.9121 15.3873C20.8871 11.5695 40.9952 5.14351 45.724 12.5934C50.4528 20.0433 39.7436 32.3365 32.0531 38.2974C35.1855 33.6415 39.5612 26.1548 37.5783 19.6719C33.8184 7.37865 12.9138 15.3873 12.9138 15.3873H12.9121Z" fill="white"/>
<path d="M12.9121 15.3873C20.8871 11.5695 40.9952 5.14351 45.724 12.5934C50.4528 20.0433 39.7436 32.3365 32.0531 38.2974C35.1855 33.6415 44.705 24.0468 42.8191 15.7604C39.8791 2.83644 12.9138 15.3873 12.9138 15.3873H12.9121Z" fill="white"/>
<path d="M12.9121 15.3872C20.8871 11.5694 37.5348 6.09702 42.0628 13.3378C43.8265 16.1585 43.4684 20.0214 42.0193 23.963C40.0766 29.2497 35.0349 34.5933 32.0514 38.2957C35.1838 33.6397 44.7033 24.045 42.8175 15.7586C39.8775 2.83466 12.9121 15.3855 12.9121 15.3855V15.3872Z" fill="white"/>
<path d="M11.5054 12.3477C18.1835 19.9799 20.6885 32.3953 19.7497 40.1413C18.6454 49.2508 14.8804 54.949 10.4629 57.0001C27.6461 55.5195 24.527 35.4753 23.5415 31.2007C20.9328 19.8678 11.5054 12.3493 11.5054 12.3493V12.3477Z" fill="white"/>
<path d="M14.3168 9.15711C8.08877 9.67072 7.67211 10.0873 7.15841 16.3142C6.6447 10.0873 6.22805 9.67072 0 9.15711C6.22805 8.6435 6.6447 8.22692 7.15841 2C7.67211 8.22692 8.08877 8.6435 14.3168 9.15711Z" fill="white"/>
</svg>
