<svg width="176" height="42" viewBox="0 0 176 42" fill="none" xmlns="http://www.w3.org/2000/svg">
<path d="M171.073 31.8164H172.216V33.1455H171.073V31.8164ZM167.718 32.5414H175.627V34.6419H174.494V33.5545H168.805V34.6419H167.718V32.5414ZM169.131 34.1493H174.15V35.0974H169.131V34.1493ZM170.041 35.8038L170.897 35.3019C173.09 36.8262 173.071 39.4472 172.077 40.1629C171.724 40.4696 171.426 40.5533 170.934 40.5533C170.701 40.5626 170.423 40.5533 170.144 40.5347C170.125 40.2279 170.023 39.7818 169.828 39.4658C170.172 39.503 170.478 39.5123 170.72 39.5123C170.952 39.5123 171.129 39.4844 171.287 39.3171C171.817 38.9081 171.817 37.0678 170.041 35.8038ZM171.51 34.391L172.43 34.7721C171.445 35.7759 169.753 36.4916 168.201 36.9005C168.099 36.6867 167.811 36.2406 167.634 36.0361C169.112 35.7387 170.701 35.1624 171.51 34.391ZM170.785 36.2406L171.501 36.7425C170.729 37.3374 169.363 38.0251 168.322 38.3876C168.201 38.146 167.969 37.7649 167.764 37.5418C168.777 37.3002 170.125 36.7425 170.785 36.2406ZM171.538 37.1236L172.3 37.6905C171.306 38.6386 169.493 39.6238 168.015 40.1164C167.885 39.8376 167.643 39.4379 167.43 39.1963C168.898 38.8338 170.673 37.9601 171.538 37.1236ZM172.951 34.549C173.397 36.5008 174.354 38.1646 175.999 38.8988C175.748 39.1219 175.395 39.568 175.228 39.8748C173.471 38.936 172.542 37.0771 172.012 34.7349L172.951 34.549ZM174.763 35.1531L175.637 35.906C174.995 36.3893 174.187 36.9098 173.583 37.2165L172.867 36.5473C173.453 36.2127 174.28 35.6179 174.763 35.1531Z" fill="#00833E"/>
<path d="M159.046 33.5636H161.379V34.3536H159.046V33.5636ZM163.34 33.5636H165.683V34.3536H163.34V33.5636ZM165.246 32.1787H166.371V39.1775C166.371 39.8281 166.24 40.1441 165.831 40.3207C165.422 40.5066 164.809 40.5345 163.907 40.5345C163.852 40.2185 163.666 39.6887 163.508 39.382C164.093 39.4284 164.79 39.4191 164.986 39.4098C165.181 39.4098 165.246 39.3541 165.246 39.1682V32.1787ZM159.139 32.1787H162.067V35.785H159.139V34.8927H161.017V33.0803H159.139V32.1787ZM165.85 32.1787V33.0803H163.768V34.9113H165.85V35.8036H162.708V32.1787H165.85ZM158.498 32.1787H159.604V40.5345H158.498V32.1787Z" fill="#00833E"/>
<path d="M148.926 37.4396H157.402V38.3691H148.926V37.4396ZM149.158 32.4299H157.17V33.3407H149.158V32.4299ZM154.289 36.8448H155.385V39.4565C155.385 39.9863 155.265 40.2466 154.874 40.3953C154.484 40.5347 153.936 40.544 153.183 40.544C153.136 40.2466 152.987 39.8469 152.848 39.5681C153.331 39.5959 153.926 39.5959 154.084 39.5866C154.233 39.5773 154.289 39.5495 154.289 39.4286V36.8448ZM152.569 31.8071H153.675V36.5473H152.569V31.8071ZM150.264 38.8431L151.091 38.2575C151.593 38.6014 152.207 39.1219 152.486 39.503L151.593 40.1629C151.342 39.7818 150.748 39.2242 150.264 38.8431ZM150.868 35.7015V36.1756H155.441V35.7015H150.868ZM150.868 34.5211V34.9951H155.441V34.5211H150.868ZM149.827 33.759H156.538V36.9377H149.827V33.759Z" fill="#00833E"/>
<path d="M144.761 33.3315C144.631 34.2796 144.445 35.367 144.12 36.4638C143.562 38.3413 142.763 39.4938 141.75 39.4938C140.709 39.4938 139.854 38.3506 139.854 36.7798C139.854 34.6421 141.722 32.8018 144.129 32.8018C146.425 32.8018 147.884 34.4004 147.884 36.4359C147.884 38.3878 146.685 39.7726 144.343 40.1351L143.636 39.0384C143.999 38.9919 144.259 38.9454 144.51 38.8897C145.69 38.6015 146.62 37.7557 146.62 36.3894C146.62 34.9302 145.709 33.8892 144.101 33.8892C142.131 33.8892 141.053 35.4972 141.053 36.6683C141.053 37.607 141.424 38.0625 141.777 38.0625C142.177 38.0625 142.53 37.4676 142.921 36.2128C143.19 35.3392 143.395 34.2703 143.488 33.2944L144.761 33.3315Z" fill="#00833E"/>
<path d="M130.439 39.3915H138.897V40.3767H130.439V39.3915ZM132.521 37.0771H136.787V37.8486H132.521V37.0771ZM132.521 38.2296H136.787V39.0011H132.521V38.2296ZM131.982 35.8038H137.363V39.9305H136.22V36.7053H133.078V39.9677H131.982V35.8038ZM130.504 32.8481H138.832V33.8055H130.504V32.8481ZM134.073 31.8071H135.179V35.5528H134.073V31.8071ZM133.562 33.1548L134.473 33.508C133.673 34.7442 132.344 35.8038 130.931 36.3429C130.773 36.0919 130.467 35.6922 130.234 35.4878C131.573 35.0509 132.893 34.1401 133.562 33.1548ZM135.644 33.1641C136.332 34.1308 137.679 35.0044 139.064 35.4134C138.823 35.6179 138.506 36.0361 138.348 36.315C136.917 35.7852 135.569 34.7349 134.761 33.508L135.644 33.1641Z" fill="#00833E"/>
<path d="M125.818 33.7961H128.142V34.614H125.818V33.7961ZM125.772 35.2368H128.207V36.0547H125.772V35.2368ZM126.534 33.192H127.398V35.7108H126.534V33.192ZM125.038 32.1417H128.886V33.0897H125.038V32.1417ZM126.274 36.5287H128.133V39.001H126.274V38.2017H127.333V37.328H126.274V36.5287ZM125.837 36.5287H126.618V39.3264H125.837V36.5287ZM128.486 32.1417H129.518V39.2892C129.518 39.8283 129.425 40.1443 129.109 40.3209C128.802 40.5068 128.337 40.5253 127.677 40.5253C127.64 40.2372 127.51 39.726 127.361 39.4379C127.752 39.4658 128.179 39.4565 128.319 39.4565C128.449 39.4565 128.486 39.4193 128.486 39.2799V32.1417ZM124.499 32.1417H125.502V35.6271C125.502 37.105 125.4 39.2427 124.666 40.5811C124.489 40.4045 124.034 40.0885 123.801 39.977C124.452 38.7594 124.499 36.9748 124.499 35.6271V32.1417ZM121.431 34.6605H123.904V35.497H121.431V34.6605ZM121.487 32.0952H123.876V32.941H121.487V32.0952ZM121.431 35.9246H123.904V36.7704H121.431V35.9246ZM121.041 33.35H124.136V34.233H121.041V33.35ZM121.943 37.2165H123.885V40.0234H121.943V39.1498H122.993V38.0902H121.943V37.2165ZM121.404 37.2165H122.277V40.4138H121.404V37.2165Z" fill="#00833E"/>
<path d="M116.172 34.9858C116.823 34.9858 117.353 35.5156 117.353 36.1662C117.353 36.8262 116.823 37.3559 116.172 37.3559C115.512 37.3559 114.982 36.8262 114.982 36.1662C114.982 35.5156 115.512 34.9858 116.172 34.9858Z" fill="#00833E"/>
<path d="M107.267 34.9487H111.31V35.999H107.267V34.9487ZM106.7 32.4577L108.029 32.8295C108.02 32.9132 107.955 32.9689 107.788 32.9968V35.181C107.788 36.6682 107.62 38.9825 106.412 40.5254C106.254 40.2837 105.827 39.9212 105.557 39.7911C106.598 38.4248 106.7 36.5473 106.7 35.1625V32.4577ZM110.074 31.9001L111.013 32.7738C109.944 33.2292 108.522 33.5545 107.295 33.7497C107.239 33.4894 107.072 33.0712 106.933 32.8388C108.076 32.6158 109.312 32.2719 110.074 31.9001ZM108.996 35.274H110.102V40.5254H108.996V35.274ZM102.685 33.7218H106.161V34.7814H102.685V33.7218ZM103.968 31.8071H105.037V40.5347H103.968V31.8071ZM103.912 34.4375L104.572 34.6698C104.274 36.1663 103.689 37.9694 102.973 38.9267C102.871 38.62 102.611 38.1646 102.443 37.8857C103.085 37.0771 103.67 35.6272 103.912 34.4375ZM104.953 35.2554C105.195 35.5156 106.078 36.6589 106.263 36.9284L105.641 37.8114C105.39 37.2537 104.758 36.222 104.442 35.7573L104.953 35.2554Z" fill="#00833E"/>
<path d="M94.8313 35.218H99.8596V36.3055H94.8313V35.218ZM99.4971 35.218H100.668C100.668 35.218 100.659 35.5619 100.65 35.7013C100.547 38.5269 100.436 39.6329 100.111 40.014C99.8782 40.33 99.618 40.4137 99.2648 40.4694C98.9395 40.5159 98.4004 40.5066 97.852 40.488C97.8334 40.1627 97.6847 39.6794 97.4802 39.3634C98.0007 39.4099 98.484 39.4192 98.7164 39.4192C98.8837 39.4192 98.9859 39.3913 99.0882 39.289C99.3112 39.0474 99.4135 38.0064 99.4971 35.4225V35.218ZM95.8816 31.9278L97.0899 32.281C96.3928 33.8982 95.2588 35.3946 94.0877 36.3148C93.874 36.0731 93.3906 35.627 93.1211 35.4132C94.2922 34.6418 95.3239 33.3405 95.8816 31.9278ZM99.4228 31.9092C100.008 33.0896 101.179 34.4466 102.202 35.2273C101.895 35.469 101.468 35.9244 101.254 36.2404C100.204 35.2738 99.0603 33.7681 98.326 32.346L99.4228 31.9092ZM96.495 35.534H97.7033C97.5267 37.6253 97.127 39.5679 94.3573 40.5996C94.2178 40.2928 93.8925 39.8188 93.6323 39.5772C96.1232 38.7592 96.3463 37.1885 96.495 35.534Z" fill="#00833E"/>
<path d="M86.6886 38.8152C86.6886 38.0995 86.6886 34.2516 86.6886 33.4708C86.6886 33.1362 86.6608 32.6808 86.5957 32.3462H88.0456C88.0085 32.6808 87.962 33.0805 87.962 33.4708C87.962 34.4932 87.9713 38.1274 87.9713 38.8152C87.9713 39.0754 88.0085 39.726 88.0549 40.1071H86.5957C86.6608 39.7446 86.6886 39.1777 86.6886 38.8152ZM87.6925 34.7535C88.9286 35.0974 90.9362 35.8316 91.8471 36.2778L91.3266 37.5697C90.267 37.0213 88.7056 36.4265 87.6925 36.0919V34.7535Z" fill="#00833E"/>
<path d="M82.2738 33.4058C82.1994 33.5081 82.0321 33.7869 81.9485 33.9821C81.5674 34.8651 80.8796 36.1291 80.0803 37.0586C79.0393 38.2576 77.6358 39.4101 76.1951 40.0886L75.2285 39.0848C76.7342 38.5271 78.1656 37.3932 79.0393 36.4266C79.6527 35.7295 80.2197 34.8093 80.4334 34.1494C80.0431 34.1494 77.673 34.1494 77.2733 34.1494C76.8922 34.1494 76.381 34.1959 76.1766 34.2145V32.8853C76.4275 32.9225 77.0038 32.9504 77.2733 32.9504C77.7659 32.9504 80.1453 32.9504 80.5543 32.9504C80.9632 32.9504 81.3257 32.9039 81.5209 32.8389L82.2738 33.4058ZM80.2011 36.2871C81.1584 37.0679 82.4782 38.4528 83.0824 39.1963L82.0228 40.1165C81.335 39.1591 80.3219 38.0531 79.3274 37.1515L80.2011 36.2871Z" fill="#00833E"/>
<path d="M71.6829 33.2573C71.9525 33.6477 72.3522 34.3169 72.5659 34.7444L71.7294 35.1069C71.4599 34.5213 71.2182 34.0752 70.8743 33.5919L71.6829 33.2573ZM72.9284 32.7461C73.2073 33.1179 73.6255 33.7778 73.8393 34.196L73.0214 34.5864C72.7239 34.0009 72.473 33.5826 72.1291 33.1179L72.9284 32.7461ZM65.4277 37.0588C65.6973 36.8264 65.9018 36.6312 66.1899 36.3431C66.6081 35.9248 67.3331 35.014 67.9744 34.2518C68.5321 33.5919 69.0805 33.4897 69.7962 34.1682C70.4282 34.763 71.1346 35.4973 71.6922 36.1014C72.315 36.7706 73.2723 37.793 73.988 38.5552L72.9563 39.6612C72.3336 38.8898 71.5528 37.9231 71.0044 37.2818C70.4561 36.6405 69.6382 35.7389 69.3035 35.395C68.9968 35.0976 68.8016 35.1162 68.5414 35.4508C68.1696 35.9248 67.519 36.8357 67.1379 37.3469C66.9242 37.635 66.7104 37.9696 66.5431 38.2113L65.4277 37.0588Z" fill="#00833E"/>
<path d="M64.2503 33.4058C64.176 33.5081 64.0087 33.7869 63.925 33.9821C63.5439 34.8651 62.8561 36.1291 62.0568 37.0586C61.0158 38.2576 59.6124 39.4101 58.1717 40.0886L57.2051 39.0848C58.7108 38.5271 60.1421 37.3932 61.0158 36.4266C61.6293 35.7295 62.1962 34.8093 62.41 34.1494C62.0196 34.1494 59.6495 34.1494 59.2499 34.1494C58.8688 34.1494 58.3576 34.1959 58.1531 34.2145V32.8853C58.4041 32.9225 58.9803 32.9504 59.2499 32.9504C59.7425 32.9504 62.1219 32.9504 62.5308 32.9504C62.9398 32.9504 63.3023 32.9039 63.4975 32.8389L64.2503 33.4058ZM62.1776 36.2871C63.135 37.0679 64.4548 38.4528 65.0589 39.1963L63.9994 40.1165C63.3116 39.1591 62.2985 38.0531 61.304 37.1515L62.1776 36.2871Z" fill="#00833E"/>
<path d="M56.1268 33.4149C56.0338 33.5357 55.8572 33.7588 55.7736 33.8889C55.3367 34.6139 54.4538 35.7943 53.5336 36.4449L52.567 35.6734C53.3198 35.218 54.0448 34.4001 54.2865 33.9447C53.7195 33.9447 50.0203 33.9447 49.4347 33.9447C49.0536 33.9447 48.7376 33.9633 48.3008 34.0097V32.7085C48.6633 32.7643 49.0536 32.8107 49.4347 32.8107C50.0203 32.8107 53.9611 32.8107 54.4445 32.8107C54.7047 32.8107 55.2159 32.7736 55.3925 32.7271L56.1268 33.4149ZM52.3439 34.6603C52.3439 36.9654 52.2881 38.8615 49.76 40.2278L48.6726 39.3448C48.9793 39.2425 49.3139 39.0845 49.6578 38.8243C50.8289 38.0064 51.052 37.0304 51.052 35.5061C51.052 35.2087 51.0427 34.9671 50.9962 34.6603H52.3439Z" fill="#00833E"/>
<path d="M131.168 25.7561V7.29102H137.934C141.875 7.29102 145.147 8.65421 145.147 13.1156C145.147 17.453 141.875 19.2624 137.934 19.2624H135.605V25.7561H131.168ZM135.605 15.7676H137.587C139.694 15.7676 140.834 14.8506 140.834 13.1156C140.834 11.3806 139.694 10.8105 137.587 10.8105H135.605V15.7676ZM141.132 25.7561L137.141 18.1222L140.14 15.2223L146.089 25.7561H141.132Z" fill="#00833E"/>
<path d="M111.734 25.7561L117.46 7.29102H122.764L128.489 25.7561H123.83L121.525 16.536C121.029 14.7018 120.558 12.4959 120.062 10.6123H119.963C119.517 12.5455 119.021 14.7018 118.55 16.536L116.245 25.7561H111.734ZM115.626 21.5178V18.0974H124.548V21.5178H115.626Z" fill="#00833E"/>
<path d="M102.341 25.7561V10.984H97.3594V7.29102H111.784V10.984H106.778V25.7561H102.341Z" fill="#00833E"/>
<path d="M88.6755 26.1031C86.2713 26.1031 83.6936 25.2108 81.7852 23.451L84.3133 20.4024C85.6021 21.5178 87.3123 22.2861 88.7746 22.2861C90.4105 22.2861 91.1788 21.6665 91.1788 20.6751C91.1788 19.6093 90.1626 19.2623 88.5764 18.5931L86.2217 17.6017C84.2885 16.8333 82.4791 15.2223 82.4791 12.5455C82.4791 9.44729 85.2551 6.96875 89.1712 6.96875C91.3027 6.96875 93.5582 7.78667 95.1693 9.39772L92.9634 12.1737C91.7489 11.2566 90.6088 10.7609 89.1712 10.7609C87.808 10.7609 86.9901 11.3062 86.9901 12.2728C86.9901 13.3138 88.1302 13.7104 89.7661 14.3548L92.0711 15.2719C94.3513 16.1889 95.7145 17.7256 95.7145 20.3281C95.7145 23.4015 93.1369 26.1031 88.6755 26.1031Z" fill="#00833E"/>
<path d="M66.5938 25.7561V7.29102H78.2925V10.984H71.0303V14.4044H77.2019V18.1222H71.0303V22.0383H78.5651V25.7561H66.5938Z" fill="#00833E"/>
<path d="M48.6172 25.7561V7.29102H55.0614C58.8783 7.29102 61.9269 8.332 61.9269 11.8763C61.9269 13.5121 61.0099 15.2967 59.5228 15.8668V15.9659C61.3817 16.4616 62.7944 17.8496 62.7944 20.3033C62.7944 24.0707 59.5971 25.7561 55.5819 25.7561H48.6172ZM53.0538 14.6275H54.8879C56.7716 14.6275 57.6143 13.8096 57.6143 12.5455C57.6143 11.2319 56.7468 10.6866 54.8879 10.6866H53.0538V14.6275ZM53.0538 22.3605H55.2597C57.3912 22.3605 58.4818 21.5922 58.4818 20.0059C58.4818 18.494 57.416 17.8744 55.2597 17.8744H53.0538V22.3605Z" fill="#00833E"/>
<path d="M8.8973 8C14.6445 13.8117 18.1613 21.6171 18.2378 30.2059C18.2793 34.8902 16.8013 37.1399 15.6921 38.661C13.7043 41.3872 10.1473 41.1184 8 42C22.7859 40.8726 20.1021 25.6096 19.2544 22.3547C17.0092 13.7251 8.8973 8 8.8973 8Z" fill="#00833E"/>
<path d="M20.5374 19.0013C23.2229 19.6716 33.5327 22.5917 33.6123 27.5657C33.6843 32.1111 27.3655 36.8068 14 40C30.0169 38.4217 41.2985 32.443 41.9304 28.9179C43.4191 20.6162 20.5374 19 20.5374 19V19.0013Z" fill="#00833E"/>
<path d="M20.5374 19C23.2229 19.6703 39.2601 20.803 39.0427 25.9874C38.7647 32.5893 27.3655 36.8068 14 40C30.0169 38.4217 41.2985 32.443 41.9304 28.9179C43.4191 20.6162 20.5374 19 20.5374 19Z" fill="#00833E"/>
<path d="M20.5261 19C23.207 19.6703 39.0537 20.8736 38.8367 26.0579C38.5591 32.6599 27.3437 36.8068 14 40C23.9513 37.6417 29.858 35.6479 33.8143 33.0126C36.3161 31.3468 38.5869 29.6104 38.954 26.7857C39.1004 25.6568 38.9099 24.8102 38.2034 24.0223C36.9468 22.6217 34.4161 21.6092 31.7832 20.9507C26.5716 19.6467 20.5261 19 20.5261 19Z" fill="#00833E"/>
<path d="M10 9.70295C16.1029 6.82054 31.4906 1.96893 35.1093 7.59356C38.728 13.2182 30.5328 22.4995 24.6476 27C27.0447 23.4848 30.3933 17.8323 28.8759 12.9378C25.9986 3.65644 10.0013 9.70295 10.0013 9.70295H10Z" fill="#00833E"/>
<path d="M10 9.70295C16.1029 6.82054 31.4906 1.96893 35.1093 7.59356C38.728 13.2182 30.5328 22.4995 24.6476 27C27.0447 23.4848 34.3295 16.2408 32.8864 9.98463C30.6365 0.227095 10.0013 9.70295 10.0013 9.70295H10Z" fill="#00833E"/>
<path d="M10 10.1234C16.046 7.31086 28.6669 3.27937 32.0996 8.61361C33.4366 10.6916 33.1652 13.5374 32.0666 16.4412C30.5938 20.3359 26.7716 24.2725 24.5098 27C26.8845 23.57 34.1014 16.5016 32.6717 10.397C30.4428 0.875996 10 10.1222 10 10.1222V10.1234Z" fill="#00833E"/>
<path d="M8.82229 8C14.09 13.8115 16.0659 23.265 15.3254 29.1631C14.4543 36.0994 11.4845 40.4382 8 42C21.554 40.8726 19.0937 25.6102 18.3163 22.3554C16.2586 13.7261 8.82229 8.00127 8.82229 8.00127V8Z" fill="#274299"/>
<path d="M8.82229 8C14.09 13.8115 16.0659 23.265 15.3254 29.1631C14.4543 36.0994 11.4845 40.4382 8 42C21.554 40.8726 19.0937 25.6102 18.3163 22.3554C16.2586 13.7261 8.82229 8.00127 8.82229 8.00127V8Z" fill="#00833E"/>
<path d="M11 5.5C6.21482 5.89469 5.89469 6.21482 5.5 11C5.10531 6.21482 4.78518 5.89469 0 5.5C4.78518 5.10531 5.10531 4.78518 5.5 0C5.89469 4.78518 6.21482 5.10531 11 5.5Z" fill="#00833E"/>
</svg>
