<svg width="230" height="57" viewBox="0 0 230 57" fill="none" xmlns="http://www.w3.org/2000/svg">
<path d="M72.448 45.888C72.328 46.044 72.1 46.332 71.992 46.5C71.428 47.436 70.288 48.96 69.1 49.8L67.852 48.804C68.824 48.216 69.76 47.16 70.072 46.572C69.34 46.572 64.564 46.572 63.808 46.572C63.316 46.572 62.908 46.596 62.344 46.656V44.976C62.812 45.048 63.316 45.108 63.808 45.108C64.564 45.108 69.652 45.108 70.276 45.108C70.612 45.108 71.272 45.06 71.5 45L72.448 45.888ZM67.564 47.496C67.564 50.472 67.492 52.92 64.228 54.684L62.824 53.544C63.22 53.412 63.652 53.208 64.096 52.872C65.608 51.816 65.896 50.556 65.896 48.588C65.896 48.204 65.884 47.892 65.824 47.496H67.564ZM82.936 45.876C82.84 46.008 82.624 46.368 82.516 46.62C82.024 47.76 81.136 49.392 80.104 50.592C78.76 52.14 76.948 53.628 75.088 54.504L73.84 53.208C75.784 52.488 77.632 51.024 78.76 49.776C79.552 48.876 80.284 47.688 80.56 46.836C80.056 46.836 76.996 46.836 76.48 46.836C75.988 46.836 75.328 46.896 75.064 46.92V45.204C75.388 45.252 76.132 45.288 76.48 45.288C77.116 45.288 80.188 45.288 80.716 45.288C81.244 45.288 81.712 45.228 81.964 45.144L82.936 45.876ZM80.26 49.596C81.496 50.604 83.2 52.392 83.98 53.352L82.612 54.54C81.724 53.304 80.416 51.876 79.132 50.712L80.26 49.596ZM92.5322 45.684C92.8802 46.188 93.3962 47.052 93.6722 47.604L92.5922 48.072C92.2442 47.316 91.9322 46.74 91.4882 46.116L92.5322 45.684ZM94.1402 45.024C94.5002 45.504 95.0402 46.356 95.3162 46.896L94.2602 47.4C93.8762 46.644 93.5522 46.104 93.1082 45.504L94.1402 45.024ZM84.4562 50.592C84.8042 50.292 85.0682 50.04 85.4402 49.668C85.9802 49.128 86.9162 47.952 87.7442 46.968C88.4642 46.116 89.1722 45.984 90.0962 46.86C90.9122 47.628 91.8242 48.576 92.5442 49.356C93.3482 50.22 94.5842 51.54 95.5082 52.524L94.1762 53.952C93.3722 52.956 92.3642 51.708 91.6562 50.88C90.9482 50.052 89.8922 48.888 89.4602 48.444C89.0642 48.06 88.8122 48.084 88.4762 48.516C87.9962 49.128 87.1562 50.304 86.6642 50.964C86.3882 51.336 86.1122 51.768 85.8962 52.08L84.4562 50.592ZM106.207 45.876C106.111 46.008 105.895 46.368 105.787 46.62C105.295 47.76 104.407 49.392 103.375 50.592C102.031 52.14 100.219 53.628 98.3586 54.504L97.1106 53.208C99.0546 52.488 100.903 51.024 102.031 49.776C102.823 48.876 103.555 47.688 103.831 46.836C103.327 46.836 100.267 46.836 99.7506 46.836C99.2586 46.836 98.5986 46.896 98.3346 46.92V45.204C98.6586 45.252 99.4026 45.288 99.7506 45.288C100.387 45.288 103.459 45.288 103.987 45.288C104.515 45.288 104.983 45.228 105.235 45.144L106.207 45.876ZM103.531 49.596C104.767 50.604 106.471 52.392 107.251 53.352L105.883 54.54C104.995 53.304 103.687 51.876 102.403 50.712L103.531 49.596ZM111.907 52.86C111.907 51.936 111.907 46.968 111.907 45.96C111.907 45.528 111.871 44.94 111.787 44.508H113.659C113.611 44.94 113.551 45.456 113.551 45.96C113.551 47.28 113.563 51.972 113.563 52.86C113.563 53.196 113.611 54.036 113.671 54.528H111.787C111.871 54.06 111.907 53.328 111.907 52.86ZM113.203 47.616C114.799 48.06 117.391 49.008 118.567 49.584L117.895 51.252C116.527 50.544 114.511 49.776 113.203 49.344V47.616ZM122.419 48.216H128.911V49.62H122.419V48.216ZM128.443 48.216H129.955C129.955 48.216 129.943 48.66 129.931 48.84C129.799 52.488 129.655 53.916 129.235 54.408C128.935 54.816 128.599 54.924 128.143 54.996C127.723 55.056 127.027 55.044 126.319 55.02C126.295 54.6 126.103 53.976 125.839 53.568C126.511 53.628 127.135 53.64 127.435 53.64C127.651 53.64 127.783 53.604 127.915 53.472C128.203 53.16 128.335 51.816 128.443 48.48V48.216ZM123.775 43.968L125.335 44.424C124.435 46.512 122.971 48.444 121.459 49.632C121.183 49.32 120.559 48.744 120.211 48.468C121.723 47.472 123.055 45.792 123.775 43.968ZM128.347 43.944C129.103 45.468 130.615 47.22 131.935 48.228C131.539 48.54 130.987 49.128 130.711 49.536C129.355 48.288 127.879 46.344 126.931 44.508L128.347 43.944ZM124.567 48.624H126.127C125.899 51.324 125.383 53.832 121.807 55.164C121.627 54.768 121.207 54.156 120.871 53.844C124.087 52.788 124.375 50.76 124.567 48.624ZM138.475 47.868H143.695V49.224H138.475V47.868ZM137.743 44.652L139.459 45.132C139.447 45.24 139.363 45.312 139.147 45.348V48.168C139.147 50.088 138.931 53.076 137.371 55.068C137.167 54.756 136.615 54.288 136.267 54.12C137.611 52.356 137.743 49.932 137.743 48.144V44.652ZM142.099 43.932L143.311 45.06C141.931 45.648 140.095 46.068 138.511 46.32C138.439 45.984 138.223 45.444 138.043 45.144C139.519 44.856 141.115 44.412 142.099 43.932ZM140.707 48.288H142.135V55.068H140.707V48.288ZM132.559 46.284H137.047V47.652H132.559V46.284ZM134.215 43.812H135.595V55.08H134.215V43.812ZM134.143 47.208L134.995 47.508C134.611 49.44 133.855 51.768 132.931 53.004C132.799 52.608 132.463 52.02 132.247 51.66C133.075 50.616 133.831 48.744 134.143 47.208ZM135.487 48.264C135.799 48.6 136.939 50.076 137.179 50.424L136.375 51.564C136.051 50.844 135.235 49.512 134.827 48.912L135.487 48.264ZM149.971 47.916C150.811 47.916 151.495 48.6 151.495 49.44C151.495 50.292 150.811 50.976 149.971 50.976C149.119 50.976 148.435 50.292 148.435 49.44C148.435 48.6 149.119 47.916 149.971 47.916ZM162.427 46.38H165.427V47.436H162.427V46.38ZM162.367 48.24H165.511V49.296H162.367V48.24ZM163.351 45.6H164.467V48.852H163.351V45.6ZM161.419 44.244H166.387V45.468H161.419V44.244ZM163.015 49.908H165.415V53.1H163.015V52.068H164.383V50.94H163.015V49.908ZM162.451 49.908H163.459V53.52H162.451V49.908ZM165.871 44.244H167.203V53.472C167.203 54.168 167.083 54.576 166.675 54.804C166.279 55.044 165.679 55.068 164.827 55.068C164.779 54.696 164.611 54.036 164.419 53.664C164.923 53.7 165.475 53.688 165.655 53.688C165.823 53.688 165.871 53.64 165.871 53.46V44.244ZM160.723 44.244H162.019V48.744C162.019 50.652 161.887 53.412 160.939 55.14C160.711 54.912 160.123 54.504 159.823 54.36C160.663 52.788 160.723 50.484 160.723 48.744V44.244ZM156.763 47.496H159.955V48.576H156.763V47.496ZM156.835 44.184H159.919V45.276H156.835V44.184ZM156.763 49.128H159.955V50.22H156.763V49.128ZM156.259 45.804H160.255V46.944H156.259V45.804ZM157.423 50.796H159.931V54.42H157.423V53.292H158.779V51.924H157.423V50.796ZM156.727 50.796H157.855V54.924H156.727V50.796ZM168.391 53.604H179.311V54.876H168.391V53.604ZM171.079 50.616H176.587V51.612H171.079V50.616ZM171.079 52.104H176.587V53.1H171.079V52.104ZM170.383 48.972H177.331V54.3H175.855V50.136H171.799V54.348H170.383V48.972ZM168.475 45.156H179.227V46.392H168.475V45.156ZM173.083 43.812H174.511V48.648H173.083V43.812ZM172.423 45.552L173.599 46.008C172.567 47.604 170.851 48.972 169.027 49.668C168.823 49.344 168.427 48.828 168.127 48.564C169.855 48 171.559 46.824 172.423 45.552ZM175.111 45.564C175.999 46.812 177.739 47.94 179.527 48.468C179.215 48.732 178.807 49.272 178.603 49.632C176.755 48.948 175.015 47.592 173.971 46.008L175.111 45.564ZM186.883 45.78C186.715 47.004 186.475 48.408 186.055 49.824C185.335 52.248 184.303 53.736 182.995 53.736C181.651 53.736 180.547 52.26 180.547 50.232C180.547 47.472 182.959 45.096 186.067 45.096C189.031 45.096 190.915 47.16 190.915 49.788C190.915 52.308 189.367 54.096 186.343 54.564L185.431 53.148C185.899 53.088 186.235 53.028 186.559 52.956C188.083 52.584 189.283 51.492 189.283 49.728C189.283 47.844 188.107 46.5 186.031 46.5C183.487 46.5 182.095 48.576 182.095 50.088C182.095 51.3 182.575 51.888 183.031 51.888C183.547 51.888 184.003 51.12 184.507 49.5C184.855 48.372 185.119 46.992 185.239 45.732L186.883 45.78ZM192.259 51.084H203.203V52.284H192.259V51.084ZM192.559 44.616H202.903V45.792H192.559V44.616ZM199.183 50.316H200.599V53.688C200.599 54.372 200.443 54.708 199.939 54.9C199.435 55.08 198.727 55.092 197.755 55.092C197.695 54.708 197.503 54.192 197.323 53.832C197.947 53.868 198.715 53.868 198.919 53.856C199.111 53.844 199.183 53.808 199.183 53.652V50.316ZM196.963 43.812H198.391V49.932H196.963V43.812ZM193.987 52.896L195.055 52.14C195.703 52.584 196.495 53.256 196.855 53.748L195.703 54.6C195.379 54.108 194.611 53.388 193.987 52.896ZM194.767 48.84V49.452H200.671V48.84H194.767ZM194.767 47.316V47.928H200.671V47.316H194.767ZM193.423 46.332H202.087V50.436H193.423V46.332ZM205.327 46.08H208.339V47.1H205.327V46.08ZM210.871 46.08H213.895V47.1H210.871V46.08ZM213.331 44.292H214.783V53.328C214.783 54.168 214.615 54.576 214.087 54.804C213.559 55.044 212.767 55.08 211.603 55.08C211.531 54.672 211.291 53.988 211.087 53.592C211.843 53.652 212.743 53.64 212.995 53.628C213.247 53.628 213.331 53.556 213.331 53.316V44.292ZM205.447 44.292H209.227V48.948H205.447V47.796H207.871V45.456H205.447V44.292ZM214.111 44.292V45.456H211.423V47.82H214.111V48.972H210.055V44.292H214.111ZM204.619 44.292H206.047V55.08H204.619V44.292ZM220.855 43.824H222.331V45.54H220.855V43.824ZM216.523 44.76H226.735V47.472H225.271V46.068H217.927V47.472H216.523V44.76ZM218.347 46.836H224.827V48.06H218.347V46.836ZM219.523 48.972L220.627 48.324C223.459 50.292 223.435 53.676 222.151 54.6C221.695 54.996 221.311 55.104 220.675 55.104C220.375 55.116 220.015 55.104 219.655 55.08C219.631 54.684 219.499 54.108 219.247 53.7C219.691 53.748 220.087 53.76 220.399 53.76C220.699 53.76 220.927 53.724 221.131 53.508C221.815 52.98 221.815 50.604 219.523 48.972ZM221.419 47.148L222.607 47.64C221.335 48.936 219.151 49.86 217.147 50.388C217.015 50.112 216.643 49.536 216.415 49.272C218.323 48.888 220.375 48.144 221.419 47.148ZM220.483 49.536L221.407 50.184C220.411 50.952 218.647 51.84 217.303 52.308C217.147 51.996 216.847 51.504 216.583 51.216C217.891 50.904 219.631 50.184 220.483 49.536ZM221.455 50.676L222.439 51.408C221.155 52.632 218.815 53.904 216.907 54.54C216.739 54.18 216.427 53.664 216.151 53.352C218.047 52.884 220.339 51.756 221.455 50.676ZM223.279 47.352C223.855 49.872 225.091 52.02 227.215 52.968C226.891 53.256 226.435 53.832 226.219 54.228C223.951 53.016 222.751 50.616 222.067 47.592L223.279 47.352ZM225.619 48.132L226.747 49.104C225.919 49.728 224.875 50.4 224.095 50.796L223.171 49.932C223.927 49.5 224.995 48.732 225.619 48.132Z" fill="#323031"/>
<path d="M62.752 36V12.16H71.072C76 12.16 79.936 13.504 79.936 18.08C79.936 20.192 78.752 22.496 76.832 23.232V23.36C79.232 24 81.056 25.792 81.056 28.96C81.056 33.824 76.928 36 71.744 36H62.752ZM68.48 21.632H70.848C73.28 21.632 74.368 20.576 74.368 18.944C74.368 17.248 73.248 16.544 70.848 16.544H68.48V21.632ZM68.48 31.616H71.328C74.08 31.616 75.488 30.624 75.488 28.576C75.488 26.624 74.112 25.824 71.328 25.824H68.48V31.616ZM85.962 36V12.16H101.066V16.928H91.69V21.344H99.658V26.144H91.69V31.2H101.418V36H85.962ZM114.47 36.448C111.366 36.448 108.038 35.296 105.574 33.024L108.838 29.088C110.502 30.528 112.71 31.52 114.598 31.52C116.71 31.52 117.702 30.72 117.702 29.44C117.702 28.064 116.39 27.616 114.342 26.752L111.302 25.472C108.806 24.48 106.47 22.4 106.47 18.944C106.47 14.944 110.054 11.744 115.11 11.744C117.862 11.744 120.774 12.8 122.854 14.88L120.006 18.464C118.438 17.28 116.966 16.64 115.11 16.64C113.35 16.64 112.294 17.344 112.294 18.592C112.294 19.936 113.766 20.448 115.878 21.28L118.854 22.464C121.798 23.648 123.558 25.632 123.558 28.992C123.558 32.96 120.23 36.448 114.47 36.448ZM132.115 36V16.928H125.683V12.16H144.307V16.928H137.843V36H132.115ZM144.24 36L151.632 12.16H158.48L165.872 36H159.856L156.88 24.096C156.24 21.728 155.632 18.88 154.992 16.448H154.864C154.288 18.944 153.648 21.728 153.04 24.096L150.064 36H144.24ZM149.264 30.528V26.112H160.784V30.528H149.264ZM169.333 36V12.16H178.069C183.157 12.16 187.381 13.92 187.381 19.68C187.381 25.28 183.157 27.616 178.069 27.616H175.061V36H169.333ZM175.061 23.104H177.621C180.341 23.104 181.813 21.92 181.813 19.68C181.813 17.44 180.341 16.704 177.621 16.704H175.061V23.104ZM182.197 36L177.045 26.144L180.917 22.4L188.597 36H182.197Z" fill="#323031"/>
<path d="M11.6448 12.3472C18.815 19.9794 23.2024 30.2299 23.2977 41.5093C23.3496 47.6609 21.5056 50.6155 20.1218 52.613C17.642 56.1932 13.2044 55.8402 10.5254 56.998C28.9719 55.5173 25.6236 35.4731 24.5661 31.1986C21.765 19.8656 11.6448 12.3472 11.6448 12.3472Z" fill="#00833E"/>
<path d="M26.1541 27.6604C29.7098 28.5186 43.3607 32.2578 43.4661 38.6269C43.5615 44.4473 35.1949 50.4601 17.498 54.5489C38.7055 52.5279 53.6432 44.8722 54.4798 40.3585C56.451 29.7282 26.1541 27.6587 26.1541 27.6587V27.6604Z" fill="#00833E"/>
<path d="M26.1541 27.6606C29.7098 28.5189 50.9441 29.9694 50.6563 36.6079C50.2882 45.0616 35.1949 50.462 17.498 54.5508C38.7055 52.5298 53.6432 44.8742 54.4798 40.3604C56.451 29.7301 26.1541 27.6606 26.1541 27.6606Z" fill="#00833E"/>
<path d="M26.1541 27.6606C29.7098 28.5189 50.7283 30.0597 50.4405 36.6982C50.0723 45.1519 35.1966 50.462 17.498 54.5508C30.6971 51.5311 38.5315 48.9781 43.779 45.6036C47.0972 43.4705 50.1091 41.2471 50.5961 37.6301C50.7902 36.1846 50.5375 35.1005 49.6005 34.0917C47.9338 32.2982 44.5772 31.0016 41.085 30.1584C34.1726 28.4888 26.1541 27.6606 26.1541 27.6606Z" fill="#00833E"/>
<path d="M12.9746 15.3873C20.9496 11.5695 41.0577 5.14351 45.7865 12.5934C50.5153 20.0433 39.8061 32.3365 32.1156 38.2974C35.248 33.6415 39.6237 26.1548 37.6408 19.6719C33.8809 7.37865 12.9763 15.3873 12.9763 15.3873H12.9746Z" fill="#00833E"/>
<path d="M12.9746 15.3873C20.9496 11.5695 41.0577 5.14351 45.7865 12.5934C50.5153 20.0433 39.8061 32.3365 32.1156 38.2974C35.248 33.6415 44.7675 24.0468 42.8816 15.7604C39.9416 2.83644 12.9763 15.3873 12.9763 15.3873H12.9746Z" fill="#00833E"/>
<path d="M12.9746 15.3872C20.9496 11.5694 37.5973 6.09702 42.1253 13.3378C43.889 16.1585 43.5309 20.0214 42.0818 23.963C40.1391 29.2497 35.0974 34.5933 32.1139 38.2957C35.2463 33.6397 44.7658 24.045 42.88 15.7586C39.94 2.83466 12.9746 15.3855 12.9746 15.3855V15.3872Z" fill="#00833E"/>
<path d="M11.5679 12.3472C18.246 19.9794 20.751 32.3948 19.8122 40.1408C18.7079 49.2503 14.9429 54.9485 10.5254 56.9996C27.7086 55.519 24.5895 35.4748 23.604 31.2002C20.9953 19.8673 11.5679 12.3488 11.5679 12.3488V12.3472Z" fill="#274299"/>
<path d="M11.5679 12.3472C18.246 19.9794 20.751 32.3948 19.8122 40.1408C18.7079 49.2503 14.9429 54.9485 10.5254 56.9996C27.7086 55.519 24.5895 35.4748 23.604 31.2002C20.9953 19.8673 11.5679 12.3488 11.5679 12.3488V12.3472Z" fill="#00833E"/>
<path d="M14.3793 9.15711C8.15127 9.67072 7.73461 10.0873 7.22091 16.3142C6.7072 10.0873 6.29055 9.67072 0.0625 9.15711C6.29055 8.6435 6.7072 8.22692 7.22091 2C7.73461 8.22692 8.15127 8.6435 14.3793 9.15711Z" fill="#00833E"/>
</svg>
